<svg xmlns="http://www.w3.org/2000/svg" width="1279.796" height="511.403" viewBox="0 0 1279.796 511.403">
  <g id="_311601" data-name="311601" transform="translate(-0.034 576)">
    <path id="Path_1" data-name="Path 1" d="M843.3-574.8c.3.7,5.5,13.8,11.6,29.1C861-530.5,866-517.6,866-517c0,.8-95.9,124-99.4,127.8-.8.8-40.2,4.8-125.1,12.7-148.6,13.7-147.8,13.6-182.6,13.6-29.3,0-39.4-.7-71.6-4.7-21.8-2.7-31.9-4.9-42.8-9.5-11-4.6-10.3-3.1-7.7-16.6,1.3-6.5,2.6-12.8,2.9-14.1.5-2.2.5-2.2-12.5-2.2H314.1l-3.8,5.5c-2.1,3-4.1,5.5-4.4,5.5-1,0-22.3-17.4-38.4-31.4-28.5-24.7-79.4-71.3-109.7-100.4-6.4-6.1-12.4-11.2-13.3-11.2-2.2,0-40.7,8.9-41.4,9.6-.3.3-.1,1.3.5,2.2,3,4.9,115.4,206.1,116,207.5.5,1.3,0,1.7-1.7,1.7-4.1,0-9.9,2-9.9,3.4a50.579,50.579,0,0,0,2,7.6c1.1,3.4,2,6.4,2,6.5,0,.8-13,4.3-53.5,14.5-76.8,19.4-137.6,35.4-148,39-9.9,3.4-12.8,7.8-8.6,13.2,3.3,4.1,8.6,5.6,25.1,7.1l15.5,1.4L67-234.2c36.8-8.9,47.4-11.5,111.8-27.2L238-275.9l5.3,2.3c18.7,8.3,87.3,32.5,120.7,42.5,14.9,4.5,15.2,4.6,63,9.9,30.6,3.4,35.6,3.7,58,3.5,13.5-.1,27.4-.4,31-.7,8.4-.7,7.4-.3-19,8.3-25,8.1-103.6,33.7-138.7,45.2-13.4,4.3-35.3,11.5-48.8,15.9s-35.5,11.6-49,16-35.4,11.6-48.7,15.9c-13.4,4.4-30.1,9.8-37.1,12.1l-12.8,4.2-3.2-2.5c-1.8-1.4-10.4-8.2-19.2-15.1C125.9-129.1,123-131,120-131c-4,0-39.3,3-39.7,3.4-.2.1,7.1,6.8,16,14.9,17.8,15.9,28.1,26.3,34.7,35.1,8.1,10.7,15.5,13.1,40.5,13,16.6,0,17.3-.1,29-3.6,6.6-2,30.5-9.1,53-15.8,22.6-6.7,58.3-17.3,79.5-23.6,21.2-6.4,55.2-16.5,75.5-22.6,29.8-8.9,188.2-56.4,204-61.2,3.9-1.2,4.1-1.2,9.1,3.1,5.3,4.4,7.4,5.3,7.4,3,0-3.7,8.5-7.6,16.4-7.7h2.9l-4.6,4.8c-7.2,7.8-9.4,13.5-6.2,16.2,1.4,1.2,3.4,1.1,9.6-.5,2.1-.5,2.7.1,4.8,4.5,3,6.4,10.6,13.3,17.4,15.8,6.1,2.3,36.8,4.8,45.5,3.7,3-.4,17-1,31.1-1.5,16.5-.5,26.8-1.2,29.1-2.1,6.1-2.2,20.9-12,24.4-16,4.1-4.8,9.6-17.6,10.5-24.4.8-5.9,0-11-3.5-22.3-3-10.1-8-15.8-16.2-18.7-2.9-1.1-5.2-2.2-5.2-2.5s7.5-1.3,16.8-2.3c9.2-.9,29.8-3,45.7-4.7,16-1.6,47.7-4.3,70.5-6,95.4-6.9,203.1-17,247-23.1,33.6-4.6,56-13.1,84.7-32.1,17-11.3,27.4-21.3,29.3-28.1,1.7-6.1.8-11.2-2.8-15.6-4-5-19.5-15.3-36-23.9-7.7-4-14.6-7.9-15.3-8.8-4.6-5.6-24.3-13.7-47.9-19.7-46.2-11.8-55.3-13.1-89.5-12.3-35.1.7-112.5,5.8-179.5,11.6-12.4,1.1-23.7,2-25.2,2-2.7,0-2.7-.1-1.4-3.3.8-1.7,10.3-28.1,21.1-58.6,17.3-48.3,19.6-55.7,18.5-57.4-.7-1.1-10.6-14.6-22.1-29.9L878-576H860.4C846.7-576,842.9-575.7,843.3-574.8Z" fill="#f86b00"/>
  </g>
</svg>
