<svg xmlns="http://www.w3.org/2000/svg" xmlns:xlink="http://www.w3.org/1999/xlink" viewBox="0 0 250 100"><defs><style>.cls-1{fill:url(#_3);}.cls-2{fill:url(#_3-2);}.cls-3{fill:#fb4e02;}.cls-4{fill:#231f3b;}</style><linearGradient id="_3" x1="31.77" y1="34.77" x2="97" y2="34.77" gradientUnits="userSpaceOnUse"><stop offset="0" stop-color="#1ec9fb"/><stop offset="1" stop-color="#1b43c1"/></linearGradient><linearGradient id="_3-2" x1="52.93" y1="61.63" x2="97.64" y2="61.63" xlink:href="#_3"/></defs><g id="Logo"><path class="cls-1" d="M97,42l-8.24,1.85-24.07,5.4-.45-.79L50,23.64l-2.3,2-.19.18-.83.73h0l-.74.66-.19.17-13.51,12-.47.42A29.79,29.79,0,0,1,45.3,24v0h0l0,0A29.71,29.71,0,0,1,88,41l-4.57,1.48,5-.15Z"/><path class="cls-2" d="M84.43,66.45A29.65,29.65,0,0,1,63.1,79.52h0l-.44,0-.22,0-.18,0c-.3,0-.59-.08-.87-.13l-.26,0-.16,0-.16,0-.16,0-.15,0a8.36,8.36,0,0,1-1-.34l-.15-.07-.16-.07L59,78.55l-.15-.07h0l-.14-.08-.14-.08,0,0-.13-.08-.14-.09c-2.63-1.75-3.47-5.06-4.32-9.73,0-.2-.07-.4-.11-.6-.27-1.53-.56-3.19-.91-5L66.81,57l.8-.34.43-.18.61-.25,20.64-8.71,8.35-3.72-8.25,5.41L82.32,53.8l7.07-2.87A29.49,29.49,0,0,1,84.43,66.45Z"/><path class="cls-3" d="M104.12,41.1l-6.87,5.37a23.8,23.8,0,0,1-.94,7.45l21.77-16-26.87-3.7a24.37,24.37,0,0,1,4.15,5.52Z"/><path class="cls-3" d="M63.1,79.52H63l-.22,0-.2,0h-.2l-.82.07c-.64,0-1.27.06-1.91.06h-1l-.64,0-.63,0-.32,0-.32,0-.3,0-.36,0-.3,0-.32,0-.32,0c-.42-.06-.84-.14-1.26-.22l-.32-.07L53.28,79l-.7-.16-.28-.07L52,78.71l-.93-.27-.32-.1-.31-.1L49.8,78l-.31-.11-.3-.12c-.31-.11-.62-.24-.92-.36l-.3-.13h0l-.2-.09L47.18,77l-.24-.11-.18-.09-.3-.15-.9-.47L45.28,76h0l-.21-.12-.25-.14-.22-.13-.19-.12-.28-.17-.23-.14L43.66,75l-.42-.28A29.67,29.67,0,0,1,30,48.89l0-.64.66-.4L47.85,37.41l.11.09.4,2.07L52.93,62.8c.35,1.8.64,3.46.91,5,0,.2.08.4.11.6.85,4.67,1.69,8,4.32,9.73l.14.09.13.08,0,0,.14.08.14.08h0l.15.07.17.08.16.07.15.07a8.36,8.36,0,0,0,1,.34l.15,0,.16,0,.16,0,.16,0,.26,0c.28,0,.57.1.87.13l.18,0,.22,0Z"/><path class="cls-4" d="M121.94,61.28l15.83-24.14H123.44V30.35h24.32v4.88L131.92,59.37h16v6.79H121.94Z"/><path class="cls-4" d="M153.5,30.35h22.6v6.79H161.6v8.3H174v6.79H161.6V66.16h-8.1Z"/><path class="cls-4" d="M181.89,59.64h7.62V39.45H183v-5a23.51,23.51,0,0,0,8.65-3.18h6V59.64h6.54v6.52H181.89Z"/></g></svg>